<mxfile host="app.diagrams.net" modified="2023-11-13T08:44:39.979Z" agent="Mozilla/5.0 (Windows NT 10.0; Win64; x64) AppleWebKit/537.36 (KHTML, like Gecko) Chrome/119.0.0.0 Safari/537.36" etag="LMeXez-xH782C_cJW0CF" version="22.1.0" type="device">
  <diagram id="C5RBs43oDa-KdzZeNtuy" name="Page-1">
    <mxGraphModel dx="1050" dy="566" grid="1" gridSize="10" guides="1" tooltips="1" connect="1" arrows="1" fold="1" page="1" pageScale="1" pageWidth="827" pageHeight="1169" background="none" math="0" shadow="0">
      <root>
        <mxCell id="WIyWlLk6GJQsqaUBKTNV-0" />
        <mxCell id="WIyWlLk6GJQsqaUBKTNV-1" parent="WIyWlLk6GJQsqaUBKTNV-0" />
        <mxCell id="WIyWlLk6GJQsqaUBKTNV-3" value="&lt;font face=&quot;Verdana&quot;&gt;&lt;b&gt;START&lt;/b&gt;&lt;/font&gt;" style="rounded=1;whiteSpace=wrap;html=1;fontSize=12;glass=0;strokeWidth=1;shadow=0;" parent="WIyWlLk6GJQsqaUBKTNV-1" vertex="1">
          <mxGeometry x="329" y="30" width="120" height="40" as="geometry" />
        </mxCell>
        <mxCell id="BIHo6TzeLVsDpMFnoWxh-1" value="&lt;div style=&quot;&quot;&gt;&lt;span style=&quot;font-family: Verdana; background-color: initial;&quot;&gt;SELECT Operation&lt;/span&gt;&lt;/div&gt;&lt;font face=&quot;Verdana&quot;&gt;&lt;div style=&quot;text-align: left;&quot;&gt;&lt;span style=&quot;background-color: initial;&quot;&gt;1. Add&lt;/span&gt;&lt;/div&gt;&lt;div style=&quot;text-align: left;&quot;&gt;&lt;span style=&quot;background-color: initial;&quot;&gt;2. Substract&lt;/span&gt;&lt;/div&gt;&lt;div style=&quot;text-align: left;&quot;&gt;&lt;span style=&quot;background-color: initial;&quot;&gt;3. Multiply&lt;/span&gt;&lt;/div&gt;&lt;div style=&quot;text-align: left;&quot;&gt;&lt;span style=&quot;background-color: initial;&quot;&gt;4. Divide&lt;/span&gt;&lt;/div&gt;&lt;/font&gt;" style="shape=parallelogram;perimeter=parallelogramPerimeter;whiteSpace=wrap;html=1;fixedSize=1;align=center;" vertex="1" parent="WIyWlLk6GJQsqaUBKTNV-1">
          <mxGeometry x="309" y="130" width="160" height="80" as="geometry" />
        </mxCell>
        <mxCell id="BIHo6TzeLVsDpMFnoWxh-2" value="&lt;font face=&quot;Verdana&quot;&gt;Enter Choice&lt;/font&gt;" style="shape=parallelogram;perimeter=parallelogramPerimeter;whiteSpace=wrap;html=1;fixedSize=1;" vertex="1" parent="WIyWlLk6GJQsqaUBKTNV-1">
          <mxGeometry x="329" y="250" width="120" height="60" as="geometry" />
        </mxCell>
        <mxCell id="BIHo6TzeLVsDpMFnoWxh-3" value="&lt;font face=&quot;Verdana&quot;&gt;If o/p = E&lt;/font&gt;" style="rhombus;whiteSpace=wrap;html=1;" vertex="1" parent="WIyWlLk6GJQsqaUBKTNV-1">
          <mxGeometry x="349" y="450" width="80" height="80" as="geometry" />
        </mxCell>
        <mxCell id="BIHo6TzeLVsDpMFnoWxh-4" value="Input a,b" style="shape=parallelogram;perimeter=parallelogramPerimeter;whiteSpace=wrap;html=1;fixedSize=1;" vertex="1" parent="WIyWlLk6GJQsqaUBKTNV-1">
          <mxGeometry x="329" y="360" width="120" height="60" as="geometry" />
        </mxCell>
        <mxCell id="BIHo6TzeLVsDpMFnoWxh-5" value="C = a + b" style="rounded=0;whiteSpace=wrap;html=1;" vertex="1" parent="WIyWlLk6GJQsqaUBKTNV-1">
          <mxGeometry x="85" y="720" width="120" height="60" as="geometry" />
        </mxCell>
        <mxCell id="BIHo6TzeLVsDpMFnoWxh-6" value="C = a - b" style="rounded=0;whiteSpace=wrap;html=1;" vertex="1" parent="WIyWlLk6GJQsqaUBKTNV-1">
          <mxGeometry x="255" y="720" width="120" height="60" as="geometry" />
        </mxCell>
        <mxCell id="BIHo6TzeLVsDpMFnoWxh-7" value="C = a * b" style="rounded=0;whiteSpace=wrap;html=1;" vertex="1" parent="WIyWlLk6GJQsqaUBKTNV-1">
          <mxGeometry x="425" y="720" width="120" height="60" as="geometry" />
        </mxCell>
        <mxCell id="BIHo6TzeLVsDpMFnoWxh-8" value="C = a / b" style="rounded=0;whiteSpace=wrap;html=1;" vertex="1" parent="WIyWlLk6GJQsqaUBKTNV-1">
          <mxGeometry x="595" y="720" width="120" height="60" as="geometry" />
        </mxCell>
        <mxCell id="BIHo6TzeLVsDpMFnoWxh-9" value="Print Sum" style="rounded=0;whiteSpace=wrap;html=1;" vertex="1" parent="WIyWlLk6GJQsqaUBKTNV-1">
          <mxGeometry x="85" y="840" width="120" height="60" as="geometry" />
        </mxCell>
        <mxCell id="BIHo6TzeLVsDpMFnoWxh-10" value="Print Difference" style="rounded=0;whiteSpace=wrap;html=1;" vertex="1" parent="WIyWlLk6GJQsqaUBKTNV-1">
          <mxGeometry x="255" y="840" width="120" height="60" as="geometry" />
        </mxCell>
        <mxCell id="BIHo6TzeLVsDpMFnoWxh-11" value="Print Multiplication" style="rounded=0;whiteSpace=wrap;html=1;" vertex="1" parent="WIyWlLk6GJQsqaUBKTNV-1">
          <mxGeometry x="425" y="840" width="120" height="60" as="geometry" />
        </mxCell>
        <mxCell id="BIHo6TzeLVsDpMFnoWxh-12" value="Print Division" style="rounded=0;whiteSpace=wrap;html=1;" vertex="1" parent="WIyWlLk6GJQsqaUBKTNV-1">
          <mxGeometry x="595" y="840" width="120" height="60" as="geometry" />
        </mxCell>
        <mxCell id="BIHo6TzeLVsDpMFnoWxh-16" value="" style="endArrow=classic;html=1;rounded=0;" edge="1" parent="WIyWlLk6GJQsqaUBKTNV-1">
          <mxGeometry width="50" height="50" relative="1" as="geometry">
            <mxPoint x="144.5" y="780" as="sourcePoint" />
            <mxPoint x="145" y="840" as="targetPoint" />
          </mxGeometry>
        </mxCell>
        <mxCell id="BIHo6TzeLVsDpMFnoWxh-17" value="" style="endArrow=classic;html=1;rounded=0;" edge="1" parent="WIyWlLk6GJQsqaUBKTNV-1">
          <mxGeometry width="50" height="50" relative="1" as="geometry">
            <mxPoint x="314.5" y="780" as="sourcePoint" />
            <mxPoint x="315" y="840" as="targetPoint" />
          </mxGeometry>
        </mxCell>
        <mxCell id="BIHo6TzeLVsDpMFnoWxh-18" value="" style="endArrow=classic;html=1;rounded=0;" edge="1" parent="WIyWlLk6GJQsqaUBKTNV-1">
          <mxGeometry width="50" height="50" relative="1" as="geometry">
            <mxPoint x="484.5" y="780" as="sourcePoint" />
            <mxPoint x="485" y="840" as="targetPoint" />
          </mxGeometry>
        </mxCell>
        <mxCell id="BIHo6TzeLVsDpMFnoWxh-19" value="" style="endArrow=classic;html=1;rounded=0;" edge="1" parent="WIyWlLk6GJQsqaUBKTNV-1">
          <mxGeometry width="50" height="50" relative="1" as="geometry">
            <mxPoint x="654.5" y="780" as="sourcePoint" />
            <mxPoint x="655" y="840" as="targetPoint" />
          </mxGeometry>
        </mxCell>
        <mxCell id="BIHo6TzeLVsDpMFnoWxh-21" value="" style="endArrow=classic;html=1;rounded=0;" edge="1" parent="WIyWlLk6GJQsqaUBKTNV-1">
          <mxGeometry width="50" height="50" relative="1" as="geometry">
            <mxPoint x="145" y="680" as="sourcePoint" />
            <mxPoint x="145" y="720" as="targetPoint" />
          </mxGeometry>
        </mxCell>
        <mxCell id="BIHo6TzeLVsDpMFnoWxh-22" value="" style="endArrow=classic;html=1;rounded=0;" edge="1" parent="WIyWlLk6GJQsqaUBKTNV-1">
          <mxGeometry width="50" height="50" relative="1" as="geometry">
            <mxPoint x="314.5" y="680" as="sourcePoint" />
            <mxPoint x="314.5" y="720" as="targetPoint" />
          </mxGeometry>
        </mxCell>
        <mxCell id="BIHo6TzeLVsDpMFnoWxh-23" value="" style="endArrow=classic;html=1;rounded=0;" edge="1" parent="WIyWlLk6GJQsqaUBKTNV-1">
          <mxGeometry width="50" height="50" relative="1" as="geometry">
            <mxPoint x="485" y="680" as="sourcePoint" />
            <mxPoint x="485" y="720" as="targetPoint" />
          </mxGeometry>
        </mxCell>
        <mxCell id="BIHo6TzeLVsDpMFnoWxh-25" value="" style="endArrow=classic;html=1;rounded=0;" edge="1" parent="WIyWlLk6GJQsqaUBKTNV-1">
          <mxGeometry width="50" height="50" relative="1" as="geometry">
            <mxPoint x="654.5" y="680" as="sourcePoint" />
            <mxPoint x="654.5" y="720" as="targetPoint" />
          </mxGeometry>
        </mxCell>
        <mxCell id="BIHo6TzeLVsDpMFnoWxh-26" value="" style="endArrow=none;html=1;rounded=0;" edge="1" parent="WIyWlLk6GJQsqaUBKTNV-1">
          <mxGeometry width="50" height="50" relative="1" as="geometry">
            <mxPoint x="145" y="680" as="sourcePoint" />
            <mxPoint x="655" y="680" as="targetPoint" />
          </mxGeometry>
        </mxCell>
        <mxCell id="BIHo6TzeLVsDpMFnoWxh-27" value="" style="endArrow=classic;html=1;rounded=0;" edge="1" parent="WIyWlLk6GJQsqaUBKTNV-1">
          <mxGeometry width="50" height="50" relative="1" as="geometry">
            <mxPoint x="144.5" y="900" as="sourcePoint" />
            <mxPoint x="144.5" y="940" as="targetPoint" />
          </mxGeometry>
        </mxCell>
        <mxCell id="BIHo6TzeLVsDpMFnoWxh-28" value="" style="endArrow=classic;html=1;rounded=0;" edge="1" parent="WIyWlLk6GJQsqaUBKTNV-1">
          <mxGeometry width="50" height="50" relative="1" as="geometry">
            <mxPoint x="314.5" y="900" as="sourcePoint" />
            <mxPoint x="314.5" y="940" as="targetPoint" />
          </mxGeometry>
        </mxCell>
        <mxCell id="BIHo6TzeLVsDpMFnoWxh-29" value="" style="endArrow=classic;html=1;rounded=0;" edge="1" parent="WIyWlLk6GJQsqaUBKTNV-1">
          <mxGeometry width="50" height="50" relative="1" as="geometry">
            <mxPoint x="485" y="900" as="sourcePoint" />
            <mxPoint x="485" y="940" as="targetPoint" />
          </mxGeometry>
        </mxCell>
        <mxCell id="BIHo6TzeLVsDpMFnoWxh-30" value="" style="endArrow=classic;html=1;rounded=0;" edge="1" parent="WIyWlLk6GJQsqaUBKTNV-1">
          <mxGeometry width="50" height="50" relative="1" as="geometry">
            <mxPoint x="654.5" y="900" as="sourcePoint" />
            <mxPoint x="654.5" y="940" as="targetPoint" />
          </mxGeometry>
        </mxCell>
        <mxCell id="BIHo6TzeLVsDpMFnoWxh-31" value="" style="endArrow=none;html=1;rounded=0;" edge="1" parent="WIyWlLk6GJQsqaUBKTNV-1">
          <mxGeometry width="50" height="50" relative="1" as="geometry">
            <mxPoint x="145" y="940" as="sourcePoint" />
            <mxPoint x="655" y="940" as="targetPoint" />
          </mxGeometry>
        </mxCell>
        <mxCell id="BIHo6TzeLVsDpMFnoWxh-32" value="&lt;font face=&quot;Verdana&quot;&gt;Switch o/p&lt;br&gt;&lt;/font&gt;" style="shape=hexagon;perimeter=hexagonPerimeter2;whiteSpace=wrap;html=1;fixedSize=1;" vertex="1" parent="WIyWlLk6GJQsqaUBKTNV-1">
          <mxGeometry x="329" y="560" width="120" height="80" as="geometry" />
        </mxCell>
        <mxCell id="BIHo6TzeLVsDpMFnoWxh-33" value="" style="endArrow=classic;html=1;rounded=0;" edge="1" parent="WIyWlLk6GJQsqaUBKTNV-1">
          <mxGeometry width="50" height="50" relative="1" as="geometry">
            <mxPoint x="389" y="420" as="sourcePoint" />
            <mxPoint x="390" y="450" as="targetPoint" />
          </mxGeometry>
        </mxCell>
        <mxCell id="BIHo6TzeLVsDpMFnoWxh-35" value="" style="endArrow=classic;html=1;rounded=0;" edge="1" parent="WIyWlLk6GJQsqaUBKTNV-1">
          <mxGeometry width="50" height="50" relative="1" as="geometry">
            <mxPoint x="388.5" y="530" as="sourcePoint" />
            <mxPoint x="389" y="560" as="targetPoint" />
          </mxGeometry>
        </mxCell>
        <mxCell id="BIHo6TzeLVsDpMFnoWxh-37" value="" style="endArrow=classic;html=1;rounded=0;" edge="1" parent="WIyWlLk6GJQsqaUBKTNV-1">
          <mxGeometry width="50" height="50" relative="1" as="geometry">
            <mxPoint x="388.5" y="640" as="sourcePoint" />
            <mxPoint x="388.5" y="680" as="targetPoint" />
          </mxGeometry>
        </mxCell>
        <mxCell id="BIHo6TzeLVsDpMFnoWxh-38" value="&lt;font face=&quot;Verdana&quot;&gt;&lt;b&gt;No&lt;/b&gt;&lt;/font&gt;" style="text;html=1;strokeColor=none;fillColor=none;align=center;verticalAlign=middle;whiteSpace=wrap;rounded=0;" vertex="1" parent="WIyWlLk6GJQsqaUBKTNV-1">
          <mxGeometry x="384" y="530" width="60" height="30" as="geometry" />
        </mxCell>
        <mxCell id="BIHo6TzeLVsDpMFnoWxh-39" value="&lt;font face=&quot;Verdana&quot;&gt;&lt;b&gt;Yes&lt;/b&gt;&lt;/font&gt;" style="text;html=1;strokeColor=none;fillColor=none;align=center;verticalAlign=middle;whiteSpace=wrap;rounded=0;" vertex="1" parent="WIyWlLk6GJQsqaUBKTNV-1">
          <mxGeometry x="444" y="450" width="60" height="30" as="geometry" />
        </mxCell>
        <mxCell id="BIHo6TzeLVsDpMFnoWxh-43" value="" style="endArrow=classic;html=1;rounded=0;" edge="1" parent="WIyWlLk6GJQsqaUBKTNV-1">
          <mxGeometry width="50" height="50" relative="1" as="geometry">
            <mxPoint x="430" y="489.5" as="sourcePoint" />
            <mxPoint x="770" y="490" as="targetPoint" />
          </mxGeometry>
        </mxCell>
        <mxCell id="BIHo6TzeLVsDpMFnoWxh-44" value="" style="endArrow=classic;html=1;rounded=0;" edge="1" parent="WIyWlLk6GJQsqaUBKTNV-1">
          <mxGeometry width="50" height="50" relative="1" as="geometry">
            <mxPoint x="770" y="490" as="sourcePoint" />
            <mxPoint x="770" y="1040" as="targetPoint" />
          </mxGeometry>
        </mxCell>
        <mxCell id="BIHo6TzeLVsDpMFnoWxh-45" value="" style="endArrow=classic;html=1;rounded=0;" edge="1" parent="WIyWlLk6GJQsqaUBKTNV-1">
          <mxGeometry width="50" height="50" relative="1" as="geometry">
            <mxPoint x="220" y="940" as="sourcePoint" />
            <mxPoint x="220" y="980" as="targetPoint" />
          </mxGeometry>
        </mxCell>
        <mxCell id="BIHo6TzeLVsDpMFnoWxh-46" value="" style="endArrow=classic;html=1;rounded=0;" edge="1" parent="WIyWlLk6GJQsqaUBKTNV-1">
          <mxGeometry width="50" height="50" relative="1" as="geometry">
            <mxPoint x="220" y="980" as="sourcePoint" />
            <mxPoint x="40" y="980" as="targetPoint" />
          </mxGeometry>
        </mxCell>
        <mxCell id="BIHo6TzeLVsDpMFnoWxh-48" value="" style="endArrow=classic;html=1;rounded=0;" edge="1" parent="WIyWlLk6GJQsqaUBKTNV-1">
          <mxGeometry width="50" height="50" relative="1" as="geometry">
            <mxPoint x="40" y="980" as="sourcePoint" />
            <mxPoint x="40" y="430" as="targetPoint" />
          </mxGeometry>
        </mxCell>
        <mxCell id="BIHo6TzeLVsDpMFnoWxh-49" value="" style="endArrow=classic;html=1;rounded=0;" edge="1" parent="WIyWlLk6GJQsqaUBKTNV-1">
          <mxGeometry width="50" height="50" relative="1" as="geometry">
            <mxPoint x="40" y="430" as="sourcePoint" />
            <mxPoint x="390" y="430" as="targetPoint" />
          </mxGeometry>
        </mxCell>
        <mxCell id="BIHo6TzeLVsDpMFnoWxh-50" value="" style="endArrow=classic;html=1;rounded=0;entryX=0.544;entryY=0.01;entryDx=0;entryDy=0;entryPerimeter=0;exitX=0.5;exitY=1;exitDx=0;exitDy=0;" edge="1" parent="WIyWlLk6GJQsqaUBKTNV-1" source="WIyWlLk6GJQsqaUBKTNV-3">
          <mxGeometry width="50" height="50" relative="1" as="geometry">
            <mxPoint x="388.48" y="80" as="sourcePoint" />
            <mxPoint x="389.52" y="130.79999999999995" as="targetPoint" />
          </mxGeometry>
        </mxCell>
        <mxCell id="BIHo6TzeLVsDpMFnoWxh-52" value="" style="endArrow=classic;html=1;rounded=0;" edge="1" parent="WIyWlLk6GJQsqaUBKTNV-1">
          <mxGeometry width="50" height="50" relative="1" as="geometry">
            <mxPoint x="388.5" y="210" as="sourcePoint" />
            <mxPoint x="389.5" y="250" as="targetPoint" />
          </mxGeometry>
        </mxCell>
        <mxCell id="BIHo6TzeLVsDpMFnoWxh-53" value="" style="endArrow=classic;html=1;rounded=0;entryX=0.508;entryY=0;entryDx=0;entryDy=0;entryPerimeter=0;" edge="1" parent="WIyWlLk6GJQsqaUBKTNV-1" target="BIHo6TzeLVsDpMFnoWxh-4">
          <mxGeometry width="50" height="50" relative="1" as="geometry">
            <mxPoint x="388.5" y="310" as="sourcePoint" />
            <mxPoint x="389.5" y="350" as="targetPoint" />
          </mxGeometry>
        </mxCell>
        <mxCell id="BIHo6TzeLVsDpMFnoWxh-54" value="&lt;font face=&quot;Verdana&quot;&gt;&lt;b&gt;STOP&lt;/b&gt;&lt;/font&gt;" style="strokeWidth=2;html=1;shape=mxgraph.flowchart.start_1;whiteSpace=wrap;" vertex="1" parent="WIyWlLk6GJQsqaUBKTNV-1">
          <mxGeometry x="435" y="1010" width="100" height="60" as="geometry" />
        </mxCell>
        <mxCell id="BIHo6TzeLVsDpMFnoWxh-55" value="" style="endArrow=classic;html=1;rounded=0;entryX=1;entryY=0.5;entryDx=0;entryDy=0;entryPerimeter=0;" edge="1" parent="WIyWlLk6GJQsqaUBKTNV-1" target="BIHo6TzeLVsDpMFnoWxh-54">
          <mxGeometry width="50" height="50" relative="1" as="geometry">
            <mxPoint x="770" y="1040" as="sourcePoint" />
            <mxPoint x="590" y="1040" as="targetPoint" />
          </mxGeometry>
        </mxCell>
      </root>
    </mxGraphModel>
  </diagram>
</mxfile>
